<?xml version="1.0" encoding="utf-8"?>
<!-- Generator: Adobe Illustrator 24.2.1, SVG Export Plug-In . SVG Version: 6.00 Build 0)  -->
<svg version="1.1" id="Layer_1" xmlns="http://www.w3.org/2000/svg" xmlns:xlink="http://www.w3.org/1999/xlink" x="0px" y="0px"
	 viewBox="0 0 512 512" style="enable-background:new 0 0 512 512;" xml:space="preserve">
<style type="text/css">
	.st0{fill:#F8BB16;}
	.st1{fill:#EA4334;}
	.st2{fill:#0074BC;}
	.st3{fill:#E2E3E4;}
</style>
<g id="Layer_1_1_">
	<path id="path22" class="st0" d="M334.6,119.4l-52.3-91.1H145.1c-12.2,0-23.6,6.5-29.5,17.2L4.5,238.9c-6,10.6-6,23.4,0,34
		l42.2,73.7L98.9,256l78.5-136.6L334.6,119.4L334.6,119.4z"/>
	<path id="path26" class="st1" d="M507.6,238.9l-111-193.4c-6.2-10.6-17.4-17.2-29.5-17.2h-84.7l52.3,91.1L413.1,256l-78.5,136.6
		H439L507.6,273C513.5,262.4,513.5,249.5,507.6,238.9"/>
	<path id="path30" class="st2" d="M438.9,392.5H177.2L98.7,255.9l-52.2,90.6l68.8,119.8c6.2,10.6,17.4,17.2,29.5,17.2h221.9
		c12.2,0,23.6-6.5,29.5-17.2L438.9,392.5L438.9,392.5z"/>
	<path class="st3" d="M334.4,392.5H177.1L98.7,255.9l78.5-136.6h157.2l78.8,136.6L334.4,392.5z M255.9,187.7
		c-37.8,0-68.3,30.5-68.3,68.3s30.5,68.3,68.3,68.3s68.3-30.5,68.3-68.3S293.6,187.7,255.9,187.7z"/>
</g>
</svg>
