<?xml version="1.0" encoding="utf-8"?>
<!-- Generator: Adobe Illustrator 24.2.1, SVG Export Plug-In . SVG Version: 6.00 Build 0)  -->
<svg version="1.1" id="Layer_1" xmlns="http://www.w3.org/2000/svg" xmlns:xlink="http://www.w3.org/1999/xlink" x="0px" y="0px"
	 viewBox="0 0 2500 1509" style="enable-background:new 0 0 2500 1509;" xml:space="preserve">
<path d="M589.9,393.8h471.5v37.5H633.1v282.1h402.8v37.5H633.1v309.7h433.2v37.5H589.9L589.9,393.8z M1103.7,393.8h50.1l222,309.7
	l226.9-309.7L1911.3,0.4L1404.3,736l261.3,361.9h-52.1l-237.7-329.4l-238.7,329.4H1086l263.3-362L1103.7,393.8z M1684.2,431.2v-37.5
	h537.3v37.5H1974v666.7h-43.2V431.2H1684.2z M0,393.8h54l745,1114.9l-307.9-410.7L45.2,447l-2,650.9H0L0,393.8z M2217.2,1049.1
	c-8.8,0-15.5-6.8-15.5-15.7c0-8.8,6.6-15.7,15.5-15.7c8.9,0,15.5,6.8,15.5,15.7C2232.7,1042.3,2226.1,1049.1,2217.2,1049.1z
	 M2259.7,1007.9h23.1c0.3,12.5,9.5,20.9,22.9,20.9c15,0,23.5-9.1,23.5-26V895.5h23.5v107.5c0,30.5-17.7,48.1-46.9,48.1
	C2278.5,1051,2259.7,1034,2259.7,1007.9L2259.7,1007.9z M2383.6,1006.5h23.3c2,14.4,16.1,23.6,36.4,23.6c18.9,0,32.8-9.8,32.8-23.3
	c0-11.6-8.8-18.5-28.9-23.3l-19.6-4.7c-27.4-6.4-39.9-19.7-39.9-42c0-27.1,22.1-45.1,55.2-45.1c30.8,0,53.3,18,54.7,43.6h-22.9
	c-2.2-14-14.4-22.7-32.1-22.7c-18.6,0-31,9-31,22.6c0,10.8,8,17.1,27.7,21.7l16.7,4.1c31.1,7.3,43.9,19.9,43.9,42.7
	c0,29.1-22.5,47.3-58.4,47.3C2407.9,1051,2385.3,1033.7,2383.6,1006.5L2383.6,1006.5z"/>
</svg>
